Coordinates
version=1
nRows=9
nColumns=36
inDegrees=yes

Units are S.I. units (second, meters, Newtons, ...)
If the header above contains a line with 'inDegrees', this indicates whether rotational values are in degrees (yes) or radians (no).

endheader
time	pelvis_tilt	pelvis_list	pelvis_rotation	pelvis_tx	pelvis_ty	pelvis_tz	hip_flexion_r	hip_adduction_r	hip_rotation_r	knee_angle_r	knee_angle_r_beta	ankle_angle_r	subtalar_angle_r	mtp_angle_r	hip_flexion_l	hip_adduction_l	hip_rotation_l	knee_angle_l	knee_angle_l_beta	ankle_angle_l	subtalar_angle_l	mtp_angle_l	lumbar_extension	lumbar_bending	lumbar_rotation	arm_flex_r	arm_add_r	arm_rot_r	elbow_flex_r	pro_sup_r	arm_flex_l	arm_add_l	arm_rot_l	elbow_flex_l	pro_sup_l
      3.30000000	    -16.22843688	     -1.18268208	      1.91809311	     -0.23538808	      0.84918244	     -0.52746227	     43.42744903	      3.08969156	     -1.48992596	     45.39251392	      0.79224882	     15.59764559	    -10.70036896	     -7.49999987	     43.46213414	    -13.48570000	     -3.19552906	     42.00611104	      0.73314494	     15.39323054	      4.14182380	     -7.49999987	     -9.87269692	      7.29721776	     -0.71693153	     60.40996305	    -21.80855030	     19.29916910	     76.77617975	     98.20346255	     53.83288997	    -16.60648947	     11.29003618	     78.00638943	     90.74555913
      3.31000000	    -16.80776135	     -1.21812649	      2.05743323	     -0.23919834	      0.84438866	     -0.52773247	     45.06999881	      3.05013908	     -1.44557570	     46.75807695	      0.81608239	     15.96151213	    -11.02303980	     -7.49999987	     45.09564327	    -13.47626425	     -2.89030044	     43.23088156	      0.75452122	     15.82979963	      4.16717620	     -7.49999987	    -10.31082323	      7.36885197	     -0.57356931	     61.84697385	    -22.03747067	     19.75885181	     76.89191092	     98.31122103	     55.28909027	    -16.67624551	     11.78208535	     78.14719112	     90.86241137
      3.32000000	    -17.31755538	     -1.29493598	      2.22430334	     -0.24296423	      0.83956227	     -0.52793260	     46.60952026	      3.03392430	     -1.47483364	     48.08338217	      0.83921333	     16.32657526	    -11.46246282	     -7.49999987	     46.71200408	    -13.49646660	     -2.58774212	     44.51665830	      0.77696226	     16.21339506	      4.08459810	     -7.49999987	    -10.84616502	      7.46950707	     -0.46462332	     63.28615700	    -22.23445564	     20.14781837	     77.03269753	     98.39194408	     56.76661221	    -16.73958476	     12.15075050	     78.36955500	     90.99008097
      3.33000000	    -17.71301596	     -1.36801199	      2.40512396	     -0.24663693	      0.83488978	     -0.52808030	     47.99053677	      3.03074429	     -1.44406631	     49.34922308	      0.86130643	     16.59856530	    -11.82851104	     -7.49999987	     48.19076130	    -13.47784928	     -2.20906713	     45.75707517	      0.79861162	     16.47396086	      4.01396111	     -7.49999987	    -11.53396433	      7.55562554	     -0.36518555	     64.67168485	    -22.29700243	     20.31665389	     77.18821641	     98.44002682	     58.28872348	    -16.77360631	     12.36952188	     78.59776541	     91.10967027
      3.34000000	    -18.12012570	     -1.42786159	      2.54117611	     -0.25034353	      0.83003585	     -0.52806827	     49.42648801	      3.04423148	     -1.42617058	     50.68436772	      0.88460910	     16.85558812	    -12.17547801	     -7.49999987	     49.70868010	    -13.45689755	     -1.80714061	     47.05920375	      0.82133805	     16.71432808	      3.94547046	     -7.49999987	    -12.24892849	      7.59914688	     -0.22713663	     66.11347000	    -22.27029697	     20.35031318	     77.35231225	     98.47350505	     59.85375265	    -16.78693374	     12.57439112	     78.82717340	     91.21780650
      3.35000000	    -18.67882049	     -1.51174927	      2.64946764	     -0.25396269	      0.82476703	     -0.52802230	     51.05610186	      3.01302963	     -1.53748914	     52.04993696	      0.90844278	     17.13262206	    -12.55076703	     -7.49999987	     51.43160666	    -13.47671605	     -1.44055616	     48.44988218	      0.84560997	     17.04956035	      3.85705678	     -7.49999987	    -12.71986193	      7.68057836	     -0.09170645	     67.46577025	    -22.27631440	     20.54187378	     77.44030241	     98.51774981	     61.32745911	    -16.89930585	     13.01005044	     79.00494583	     91.34021647
      3.36000000	    -19.41075066	     -1.64877498	      2.79643489	     -0.25767067	      0.81920885	     -0.52794678	     52.83628494	      2.99422609	     -1.70639132	     53.30189375	      0.93029354	     17.37763715	    -12.90767535	     -7.49999987	     53.32946660	    -13.46232258	     -0.98967607	     49.71590135	      0.86770617	     17.46411059	      3.79146129	     -7.49999987	    -12.95777601	      7.80025320	      0.01575148	     68.86886729	    -22.38255204	     21.00513524	     77.42949932	     98.59620348	     62.82462373	    -17.09306847	     13.72007926	     79.06653831	     91.49989444
      3.37000000	    -19.78277144	     -1.71389906	      2.93378375	     -0.26116980	      0.81422121	     -0.52803254	     54.20568080	      2.96551213	     -1.71094524	     54.57963422	      0.95259432	     17.58898962	    -13.19672159	     -7.49999987	     54.76599269	    -13.39243847	     -0.61550578	     50.94082354	      0.88908509	     17.70849358	      3.68198207	     -7.49999987	    -13.68355931	      7.74906477	      0.19061323	     70.20578450	    -22.46020631	     21.03782483	     77.53567491	     98.63844342	     64.45382154	    -16.90411877	     13.99386337	     79.23345080	     91.59419436
      3.38000000	    -20.44553452	     -1.82683495	      3.06367879	     -0.26477943	      0.80845350	     -0.52824549	     55.95141249	      2.88642478	     -1.84275965	     55.92076521	      0.97600147	     17.82224723	    -13.47202215	     -7.49999987	     56.57190239	    -13.27624260	     -0.06994880	     52.23811000	      0.91172701	     18.12812575	      3.49321036	     -7.49999987	    -13.98393706	      7.66946046	      0.58893713	     71.42462422	    -23.09597120	     21.31037253	     77.83394729	     98.71956036	     66.22427208	    -16.57241481	     14.81535283	     78.93823874	     91.71867871
